<?xml version="1.0" standalone="no"?>
<!DOCTYPE svg PUBLIC "-//W3C//DTD SVG 20010904//EN"
 "http://www.w3.org/TR/2001/REC-SVG-20010904/DTD/svg10.dtd">
<svg version="1.0" xmlns="http://www.w3.org/2000/svg"
 width="300.000000pt" height="300.000000pt" viewBox="0 0 300.000000 300.000000"
 preserveAspectRatio="xMidYMid meet">
<metadata>
Created by potrace 1.10, written by Peter Selinger 2001-2011
</metadata>
<g transform="translate(0.000000,300.000000) scale(0.100000,-0.100000)"
fill="#000000" stroke="none">
<path d="M2 1503 l-2 -1503 1503 2 1502 3 -1497 2 -1498 3 -3 1498 -2 1497 -3
-1502z"/>
<path d="M20 1510 l0 -1490 1490 0 1490 0 0 1490 0 1490 -1490 0 -1490 0 0
-1490z m1158 862 c9 -10 58 -78 107 -150 215 -316 301 -437 311 -437 6 0 111
117 233 260 123 143 242 279 264 303 41 42 42 42 113 42 82 0 105 -14 86 -53
-6 -12 -141 -174 -301 -360 -160 -185 -291 -342 -291 -348 0 -10 187 -286 543
-799 64 -93 117 -176 117 -183 0 -34 -21 -37 -269 -37 -136 0 -251 4 -257 8
-7 4 -75 99 -153 212 -77 113 -175 256 -218 318 -43 61 -80 112 -84 112 -3 0
-125 -138 -270 -307 -145 -169 -272 -316 -281 -325 -14 -14 -35 -18 -91 -18
-72 0 -97 10 -97 37 0 7 138 174 307 370 168 197 313 366 321 375 13 15 -16
61 -290 460 -378 549 -342 492 -328 517 10 20 18 21 260 21 228 0 252 -2 268
-18z"/>
<path d="M863 2068 c111 -161 258 -376 328 -477 l127 -184 -329 -383 -329
-384 72 0 73 1 285 334 c157 183 287 334 290 334 3 1 109 -150 235 -334 l230
-335 248 0 248 0 -19 28 c-10 15 -164 238 -341 495 -283 411 -321 470 -309
485 15 19 526 617 577 675 l33 37 -73 0 -74 -1 -270 -314 c-209 -245 -272
-312 -281 -302 -6 6 -105 148 -219 315 l-208 302 -248 0 -248 0 202 -292z
m414 -80 c99 -145 332 -482 516 -750 l336 -488 -112 0 -112 1 -510 741 c-280
408 -511 745 -513 750 -2 4 45 8 105 8 l109 0 181 -262z"/>
<path d="M940 2206 c0 -4 331 -487 842 -1229 l130 -187 74 0 c41 0 74 2 74 6
0 3 -49 76 -108 162 -60 86 -121 175 -135 197 -15 22 -183 267 -375 545 l-349
505 -76 3 c-43 2 -77 1 -77 -2z"/>
</g>
</svg>
